<mxfile host="app.diagrams.net" agent="Mozilla/5.0 (X11; Linux x86_64) AppleWebKit/537.36 (KHTML, like Gecko) Chrome/126.0.0.0 Safari/537.36" version="24.7.4" pages="3">
  <diagram name="entorno virtual" id="C0osktGVDhIuheW2ykke">
    <mxGraphModel dx="1434" dy="700" grid="1" gridSize="10" guides="1" tooltips="1" connect="1" arrows="1" fold="1" page="1" pageScale="1" pageWidth="827" pageHeight="1169" math="0" shadow="0">
      <root>
        <mxCell id="0" />
        <mxCell id="1" parent="0" />
        <mxCell id="iRn74Bh0_ObOj__YZcfS-3" value="" style="rounded=1;whiteSpace=wrap;html=1;arcSize=8;" vertex="1" parent="1">
          <mxGeometry x="10" y="240" width="440" height="230" as="geometry" />
        </mxCell>
        <mxCell id="iRn74Bh0_ObOj__YZcfS-1" value="" style="rounded=1;whiteSpace=wrap;html=1;arcSize=11;" vertex="1" parent="1">
          <mxGeometry x="20" y="320" width="290" height="140" as="geometry" />
        </mxCell>
        <mxCell id="pJuIZ855plvIOhke3Y4h-9" value="" style="edgeStyle=orthogonalEdgeStyle;rounded=0;orthogonalLoop=1;jettySize=auto;html=1;startArrow=classic;startFill=1;" parent="1" source="pJuIZ855plvIOhke3Y4h-2" target="pJuIZ855plvIOhke3Y4h-4" edge="1">
          <mxGeometry relative="1" as="geometry">
            <Array as="points">
              <mxPoint x="240" y="390" />
              <mxPoint x="240" y="390" />
            </Array>
          </mxGeometry>
        </mxCell>
        <mxCell id="pJuIZ855plvIOhke3Y4h-2" value="ISAAC SIM&lt;div&gt;(escena renderizada)&lt;/div&gt;" style="rounded=1;whiteSpace=wrap;html=1;" parent="1" vertex="1">
          <mxGeometry x="180" y="250" width="120" height="50" as="geometry" />
        </mxCell>
        <mxCell id="pJuIZ855plvIOhke3Y4h-8" value="" style="edgeStyle=orthogonalEdgeStyle;rounded=0;orthogonalLoop=1;jettySize=auto;html=1;startArrow=classic;startFill=1;" parent="1" source="pJuIZ855plvIOhke3Y4h-3" target="pJuIZ855plvIOhke3Y4h-6" edge="1">
          <mxGeometry relative="1" as="geometry" />
        </mxCell>
        <mxCell id="pJuIZ855plvIOhke3Y4h-3" value="UR SIM&lt;div&gt;(robot simulado)&lt;/div&gt;" style="rounded=1;whiteSpace=wrap;html=1;" parent="1" vertex="1">
          <mxGeometry x="30" y="250" width="120" height="50" as="geometry" />
        </mxCell>
        <mxCell id="pJuIZ855plvIOhke3Y4h-11" value="" style="edgeStyle=orthogonalEdgeStyle;rounded=0;orthogonalLoop=1;jettySize=auto;html=1;" parent="1" source="pJuIZ855plvIOhke3Y4h-4" target="pJuIZ855plvIOhke3Y4h-5" edge="1">
          <mxGeometry relative="1" as="geometry" />
        </mxCell>
        <mxCell id="pJuIZ855plvIOhke3Y4h-4" value="ROS 2&lt;div&gt;Robot Commander&lt;/div&gt;" style="rounded=1;whiteSpace=wrap;html=1;" parent="1" vertex="1">
          <mxGeometry x="30" y="400" width="270" height="50" as="geometry" />
        </mxCell>
        <mxCell id="pJuIZ855plvIOhke3Y4h-5" value="Storage" style="shape=cylinder3;whiteSpace=wrap;html=1;boundedLbl=1;backgroundOutline=1;size=15;" parent="1" vertex="1">
          <mxGeometry x="370" y="390" width="60" height="70" as="geometry" />
        </mxCell>
        <mxCell id="pJuIZ855plvIOhke3Y4h-10" value="" style="edgeStyle=orthogonalEdgeStyle;rounded=0;orthogonalLoop=1;jettySize=auto;html=1;startArrow=classic;startFill=1;" parent="1" source="pJuIZ855plvIOhke3Y4h-6" target="pJuIZ855plvIOhke3Y4h-4" edge="1">
          <mxGeometry relative="1" as="geometry">
            <Array as="points">
              <mxPoint x="90" y="390" />
              <mxPoint x="90" y="390" />
            </Array>
          </mxGeometry>
        </mxCell>
        <mxCell id="pJuIZ855plvIOhke3Y4h-6" value="ROS 2&lt;div&gt;ur_robot_driver&lt;/div&gt;" style="rounded=1;whiteSpace=wrap;html=1;" parent="1" vertex="1">
          <mxGeometry x="30" y="330" width="120" height="50" as="geometry" />
        </mxCell>
        <mxCell id="iRn74Bh0_ObOj__YZcfS-2" value="ROS2" style="text;html=1;align=center;verticalAlign=middle;whiteSpace=wrap;rounded=0;" vertex="1" parent="1">
          <mxGeometry x="250" y="320" width="60" height="30" as="geometry" />
        </mxCell>
        <mxCell id="iRn74Bh0_ObOj__YZcfS-4" value="User PC" style="text;html=1;align=center;verticalAlign=middle;whiteSpace=wrap;rounded=0;" vertex="1" parent="1">
          <mxGeometry x="390" y="240" width="60" height="30" as="geometry" />
        </mxCell>
      </root>
    </mxGraphModel>
  </diagram>
  <diagram id="uurm0E3YoWKPuT1uDck1" name="entorno real">
    <mxGraphModel dx="1434" dy="700" grid="1" gridSize="10" guides="1" tooltips="1" connect="1" arrows="1" fold="1" page="1" pageScale="1" pageWidth="827" pageHeight="1169" math="0" shadow="0">
      <root>
        <mxCell id="0" />
        <mxCell id="1" parent="0" />
        <mxCell id="mZkn_ghsVn7r7BdpZzV9-1" value="" style="rounded=1;whiteSpace=wrap;html=1;arcSize=8;" vertex="1" parent="1">
          <mxGeometry x="520" y="310" width="440" height="160" as="geometry" />
        </mxCell>
        <mxCell id="mZkn_ghsVn7r7BdpZzV9-2" value="" style="rounded=1;whiteSpace=wrap;html=1;arcSize=11;" vertex="1" parent="1">
          <mxGeometry x="530" y="320" width="330" height="140" as="geometry" />
        </mxCell>
        <mxCell id="mZkn_ghsVn7r7BdpZzV9-3" value="" style="edgeStyle=orthogonalEdgeStyle;rounded=0;orthogonalLoop=1;jettySize=auto;html=1;startArrow=classic;startFill=1;" edge="1" parent="1" source="mZkn_ghsVn7r7BdpZzV9-4" target="mZkn_ghsVn7r7BdpZzV9-9">
          <mxGeometry relative="1" as="geometry" />
        </mxCell>
        <mxCell id="mZkn_ghsVn7r7BdpZzV9-4" value="Controlador UR5e real" style="rounded=1;whiteSpace=wrap;html=1;" vertex="1" parent="1">
          <mxGeometry x="540" y="240" width="120" height="50" as="geometry" />
        </mxCell>
        <mxCell id="mZkn_ghsVn7r7BdpZzV9-5" value="" style="edgeStyle=orthogonalEdgeStyle;rounded=0;orthogonalLoop=1;jettySize=auto;html=1;" edge="1" parent="1" source="mZkn_ghsVn7r7BdpZzV9-6" target="mZkn_ghsVn7r7BdpZzV9-7">
          <mxGeometry relative="1" as="geometry" />
        </mxCell>
        <mxCell id="mZkn_ghsVn7r7BdpZzV9-6" value="ROS 2&lt;div&gt;Robot Commander&lt;/div&gt;" style="rounded=1;whiteSpace=wrap;html=1;" vertex="1" parent="1">
          <mxGeometry x="540" y="400" width="270" height="50" as="geometry" />
        </mxCell>
        <mxCell id="mZkn_ghsVn7r7BdpZzV9-7" value="Storage" style="shape=cylinder3;whiteSpace=wrap;html=1;boundedLbl=1;backgroundOutline=1;size=15;" vertex="1" parent="1">
          <mxGeometry x="880" y="390" width="60" height="70" as="geometry" />
        </mxCell>
        <mxCell id="mZkn_ghsVn7r7BdpZzV9-8" value="" style="edgeStyle=orthogonalEdgeStyle;rounded=0;orthogonalLoop=1;jettySize=auto;html=1;startArrow=classic;startFill=1;" edge="1" parent="1" source="mZkn_ghsVn7r7BdpZzV9-9" target="mZkn_ghsVn7r7BdpZzV9-6">
          <mxGeometry relative="1" as="geometry">
            <Array as="points">
              <mxPoint x="600" y="390" />
              <mxPoint x="600" y="390" />
            </Array>
          </mxGeometry>
        </mxCell>
        <mxCell id="mZkn_ghsVn7r7BdpZzV9-9" value="ROS 2&lt;div&gt;ur_robot_driver&lt;/div&gt;" style="rounded=1;whiteSpace=wrap;html=1;" vertex="1" parent="1">
          <mxGeometry x="540" y="330" width="120" height="50" as="geometry" />
        </mxCell>
        <mxCell id="mZkn_ghsVn7r7BdpZzV9-10" value="ROS2" style="text;html=1;align=center;verticalAlign=middle;whiteSpace=wrap;rounded=0;" vertex="1" parent="1">
          <mxGeometry x="800" y="320" width="60" height="30" as="geometry" />
        </mxCell>
        <mxCell id="mZkn_ghsVn7r7BdpZzV9-11" value="User PC" style="text;html=1;align=center;verticalAlign=middle;whiteSpace=wrap;rounded=0;" vertex="1" parent="1">
          <mxGeometry x="900" y="310" width="60" height="30" as="geometry" />
        </mxCell>
        <mxCell id="mZkn_ghsVn7r7BdpZzV9-12" value="" style="edgeStyle=orthogonalEdgeStyle;rounded=0;orthogonalLoop=1;jettySize=auto;html=1;startArrow=classic;startFill=1;" edge="1" parent="1" source="mZkn_ghsVn7r7BdpZzV9-13" target="mZkn_ghsVn7r7BdpZzV9-15">
          <mxGeometry relative="1" as="geometry" />
        </mxCell>
        <mxCell id="mZkn_ghsVn7r7BdpZzV9-13" value="CÃ¡mara USB" style="rounded=1;whiteSpace=wrap;html=1;" vertex="1" parent="1">
          <mxGeometry x="680" y="240" width="120" height="50" as="geometry" />
        </mxCell>
        <mxCell id="mZkn_ghsVn7r7BdpZzV9-14" value="" style="edgeStyle=orthogonalEdgeStyle;rounded=0;orthogonalLoop=1;jettySize=auto;html=1;startArrow=classic;startFill=1;" edge="1" parent="1" source="mZkn_ghsVn7r7BdpZzV9-15">
          <mxGeometry relative="1" as="geometry">
            <Array as="points">
              <mxPoint x="740" y="390" />
              <mxPoint x="740" y="390" />
            </Array>
            <mxPoint x="740" y="400" as="targetPoint" />
          </mxGeometry>
        </mxCell>
        <mxCell id="mZkn_ghsVn7r7BdpZzV9-15" value="ROS 2&lt;div&gt;camera publisher&lt;/div&gt;" style="rounded=1;whiteSpace=wrap;html=1;" vertex="1" parent="1">
          <mxGeometry x="680" y="330" width="120" height="50" as="geometry" />
        </mxCell>
      </root>
    </mxGraphModel>
  </diagram>
  <diagram id="-ZPQ_LCYnQFRuv5rwaLP" name="network">
    <mxGraphModel dx="2022" dy="583" grid="1" gridSize="10" guides="1" tooltips="1" connect="1" arrows="1" fold="1" page="1" pageScale="1" pageWidth="827" pageHeight="1169" math="0" shadow="0">
      <root>
        <mxCell id="0" />
        <mxCell id="1" parent="0" />
        <mxCell id="v-Xa-_rRVc9M8orTa3xz-15" value="" style="shape=cube;whiteSpace=wrap;html=1;boundedLbl=1;backgroundOutline=1;darkOpacity=0.05;darkOpacity2=0.1;size=20;fillColor=#0050ef;fontColor=#ffffff;strokeColor=#001DBC;" vertex="1" parent="1">
          <mxGeometry x="670" y="240" width="40" height="160" as="geometry" />
        </mxCell>
        <mxCell id="v-Xa-_rRVc9M8orTa3xz-16" value="" style="shape=cube;whiteSpace=wrap;html=1;boundedLbl=1;backgroundOutline=1;darkOpacity=0.05;darkOpacity2=0.1;size=20;fillColor=#1ba1e2;fontColor=#ffffff;strokeColor=#006EAF;" vertex="1" parent="1">
          <mxGeometry x="640" y="250" width="40" height="140" as="geometry" />
        </mxCell>
        <mxCell id="v-Xa-_rRVc9M8orTa3xz-18" value="" style="shape=cube;whiteSpace=wrap;html=1;boundedLbl=1;backgroundOutline=1;darkOpacity=0.05;darkOpacity2=0.1;size=20;fillColor=#0050ef;fontColor=#ffffff;strokeColor=#001DBC;" vertex="1" parent="1">
          <mxGeometry x="610" y="240" width="40" height="160" as="geometry" />
        </mxCell>
        <mxCell id="v-Xa-_rRVc9M8orTa3xz-19" value="" style="shape=cube;whiteSpace=wrap;html=1;boundedLbl=1;backgroundOutline=1;darkOpacity=0.05;darkOpacity2=0.1;size=20;fillColor=#e51400;fontColor=#ffffff;strokeColor=#B20000;" vertex="1" parent="1">
          <mxGeometry x="580" y="250" width="40" height="140" as="geometry" />
        </mxCell>
        <mxCell id="v-Xa-_rRVc9M8orTa3xz-20" value="" style="shape=cube;whiteSpace=wrap;html=1;boundedLbl=1;backgroundOutline=1;darkOpacity=0.05;darkOpacity2=0.1;size=20;fillColor=#1ba1e2;fontColor=#ffffff;strokeColor=#006EAF;" vertex="1" parent="1">
          <mxGeometry x="550" y="250" width="40" height="140" as="geometry" />
        </mxCell>
        <mxCell id="v-Xa-_rRVc9M8orTa3xz-21" value="" style="shape=cube;whiteSpace=wrap;html=1;boundedLbl=1;backgroundOutline=1;darkOpacity=0.05;darkOpacity2=0.1;size=20;fillColor=#0050ef;fontColor=#ffffff;strokeColor=#001DBC;" vertex="1" parent="1">
          <mxGeometry x="520" y="240" width="40" height="160" as="geometry" />
        </mxCell>
        <mxCell id="v-Xa-_rRVc9M8orTa3xz-22" value="" style="shape=cube;whiteSpace=wrap;html=1;boundedLbl=1;backgroundOutline=1;darkOpacity=0.05;darkOpacity2=0.1;size=20;fillColor=#e51400;fontColor=#ffffff;strokeColor=#B20000;" vertex="1" parent="1">
          <mxGeometry x="490" y="250" width="40" height="140" as="geometry" />
        </mxCell>
        <mxCell id="v-Xa-_rRVc9M8orTa3xz-23" value="" style="shape=cube;whiteSpace=wrap;html=1;boundedLbl=1;backgroundOutline=1;darkOpacity=0.05;darkOpacity2=0.1;size=20;fillColor=#1ba1e2;fontColor=#ffffff;strokeColor=#006EAF;" vertex="1" parent="1">
          <mxGeometry x="460" y="250" width="40" height="140" as="geometry" />
        </mxCell>
        <mxCell id="v-Xa-_rRVc9M8orTa3xz-24" value="" style="shape=cube;whiteSpace=wrap;html=1;boundedLbl=1;backgroundOutline=1;darkOpacity=0.05;darkOpacity2=0.1;size=20;fillColor=#0050ef;fontColor=#ffffff;strokeColor=#001DBC;" vertex="1" parent="1">
          <mxGeometry x="430" y="240" width="40" height="160" as="geometry" />
        </mxCell>
        <mxCell id="v-Xa-_rRVc9M8orTa3xz-4" value="" style="shape=cube;whiteSpace=wrap;html=1;boundedLbl=1;backgroundOutline=1;darkOpacity=0.05;darkOpacity2=0.1;size=20;fillColor=#1ba1e2;fontColor=#ffffff;strokeColor=#006EAF;" vertex="1" parent="1">
          <mxGeometry x="400" y="250" width="40" height="140" as="geometry" />
        </mxCell>
        <mxCell id="v-Xa-_rRVc9M8orTa3xz-5" value="" style="shape=cube;whiteSpace=wrap;html=1;boundedLbl=1;backgroundOutline=1;darkOpacity=0.05;darkOpacity2=0.1;size=20;fillColor=#e3c800;fontColor=#000000;strokeColor=#B09500;" vertex="1" parent="1">
          <mxGeometry x="370" y="250" width="40" height="140" as="geometry" />
        </mxCell>
        <mxCell id="v-Xa-_rRVc9M8orTa3xz-6" value="" style="shape=cube;whiteSpace=wrap;html=1;boundedLbl=1;backgroundOutline=1;darkOpacity=0.05;darkOpacity2=0.1;size=20;fillColor=#60a917;fontColor=#ffffff;strokeColor=#2D7600;" vertex="1" parent="1">
          <mxGeometry x="340" y="230" width="40" height="170" as="geometry" />
        </mxCell>
        <mxCell id="v-Xa-_rRVc9M8orTa3xz-3" value="" style="shape=cube;whiteSpace=wrap;html=1;boundedLbl=1;backgroundOutline=1;darkOpacity=0.05;darkOpacity2=0.1;size=20;fillColor=#1ba1e2;fontColor=#ffffff;strokeColor=#006EAF;" vertex="1" parent="1">
          <mxGeometry x="310" y="250" width="40" height="140" as="geometry" />
        </mxCell>
        <mxCell id="v-Xa-_rRVc9M8orTa3xz-1" value="" style="shape=cube;whiteSpace=wrap;html=1;boundedLbl=1;backgroundOutline=1;darkOpacity=0.05;darkOpacity2=0.1;size=20;fillColor=#e3c800;fontColor=#000000;strokeColor=#B09500;" vertex="1" parent="1">
          <mxGeometry x="280" y="250" width="40" height="140" as="geometry" />
        </mxCell>
        <mxCell id="v-Xa-_rRVc9M8orTa3xz-2" value="" style="shape=cube;whiteSpace=wrap;html=1;boundedLbl=1;backgroundOutline=1;darkOpacity=0.05;darkOpacity2=0.1;size=20;fillColor=#60a917;fontColor=#ffffff;strokeColor=#2D7600;" vertex="1" parent="1">
          <mxGeometry x="250" y="230" width="40" height="170" as="geometry" />
        </mxCell>
        <mxCell id="v-Xa-_rRVc9M8orTa3xz-7" value="" style="shape=cube;whiteSpace=wrap;html=1;boundedLbl=1;backgroundOutline=1;darkOpacity=0.05;darkOpacity2=0.1;size=20;fillColor=#1ba1e2;fontColor=#ffffff;strokeColor=#006EAF;" vertex="1" parent="1">
          <mxGeometry x="220" y="250" width="40" height="140" as="geometry" />
        </mxCell>
        <mxCell id="v-Xa-_rRVc9M8orTa3xz-8" value="" style="shape=cube;whiteSpace=wrap;html=1;boundedLbl=1;backgroundOutline=1;darkOpacity=0.05;darkOpacity2=0.1;size=20;fillColor=#e3c800;fontColor=#000000;strokeColor=#B09500;" vertex="1" parent="1">
          <mxGeometry x="190" y="250" width="40" height="140" as="geometry" />
        </mxCell>
        <mxCell id="v-Xa-_rRVc9M8orTa3xz-9" value="" style="shape=cube;whiteSpace=wrap;html=1;boundedLbl=1;backgroundOutline=1;darkOpacity=0.05;darkOpacity2=0.1;size=20;fillColor=#60a917;fontColor=#ffffff;strokeColor=#2D7600;" vertex="1" parent="1">
          <mxGeometry x="160" y="230" width="40" height="170" as="geometry" />
        </mxCell>
        <mxCell id="v-Xa-_rRVc9M8orTa3xz-10" value="" style="shape=cube;whiteSpace=wrap;html=1;boundedLbl=1;backgroundOutline=1;darkOpacity=0.05;darkOpacity2=0.1;size=20;fillColor=#1ba1e2;fontColor=#ffffff;strokeColor=#006EAF;" vertex="1" parent="1">
          <mxGeometry x="130" y="250" width="40" height="140" as="geometry" />
        </mxCell>
        <mxCell id="v-Xa-_rRVc9M8orTa3xz-11" value="" style="shape=cube;whiteSpace=wrap;html=1;boundedLbl=1;backgroundOutline=1;darkOpacity=0.05;darkOpacity2=0.1;size=20;fillColor=#e3c800;fontColor=#000000;strokeColor=#B09500;" vertex="1" parent="1">
          <mxGeometry x="100" y="250" width="40" height="140" as="geometry" />
        </mxCell>
        <mxCell id="v-Xa-_rRVc9M8orTa3xz-12" value="" style="shape=cube;whiteSpace=wrap;html=1;boundedLbl=1;backgroundOutline=1;darkOpacity=0.05;darkOpacity2=0.1;size=20;fillColor=#60a917;fontColor=#ffffff;strokeColor=#2D7600;" vertex="1" parent="1">
          <mxGeometry x="70" y="230" width="40" height="170" as="geometry" />
        </mxCell>
        <mxCell id="v-Xa-_rRVc9M8orTa3xz-25" value="" style="shape=cube;whiteSpace=wrap;html=1;boundedLbl=1;backgroundOutline=1;darkOpacity=0.05;darkOpacity2=0.1;size=10;fillColor=#e51400;fontColor=#ffffff;strokeColor=#B20000;" vertex="1" parent="1">
          <mxGeometry x="550" y="450" width="40" height="40" as="geometry" />
        </mxCell>
        <mxCell id="v-Xa-_rRVc9M8orTa3xz-27" value="" style="shape=cube;whiteSpace=wrap;html=1;boundedLbl=1;backgroundOutline=1;darkOpacity=0.05;darkOpacity2=0.1;size=10;fillColor=#0050ef;fontColor=#ffffff;strokeColor=#001DBC;" vertex="1" parent="1">
          <mxGeometry x="400" y="500" width="40" height="40" as="geometry" />
        </mxCell>
        <mxCell id="v-Xa-_rRVc9M8orTa3xz-28" value="" style="shape=cube;whiteSpace=wrap;html=1;boundedLbl=1;backgroundOutline=1;darkOpacity=0.05;darkOpacity2=0.1;size=10;fillColor=#1ba1e2;fontColor=#ffffff;strokeColor=#006EAF;" vertex="1" parent="1">
          <mxGeometry x="320" y="450" width="40" height="40" as="geometry" />
        </mxCell>
        <mxCell id="v-Xa-_rRVc9M8orTa3xz-29" value="" style="shape=cube;whiteSpace=wrap;html=1;boundedLbl=1;backgroundOutline=1;darkOpacity=0.05;darkOpacity2=0.1;size=10;fillColor=#e3c800;fontColor=#000000;strokeColor=#B09500;" vertex="1" parent="1">
          <mxGeometry x="160" y="500" width="40" height="40" as="geometry" />
        </mxCell>
        <mxCell id="v-Xa-_rRVc9M8orTa3xz-30" value="" style="shape=cube;whiteSpace=wrap;html=1;boundedLbl=1;backgroundOutline=1;darkOpacity=0.05;darkOpacity2=0.1;size=10;fillColor=#60a917;fontColor=#ffffff;strokeColor=#2D7600;" vertex="1" parent="1">
          <mxGeometry x="80" y="450" width="40" height="40" as="geometry" />
        </mxCell>
        <mxCell id="v-Xa-_rRVc9M8orTa3xz-31" value="ConvoluciÃ³n 2D" style="text;html=1;align=center;verticalAlign=middle;whiteSpace=wrap;rounded=0;fontSize=15;" vertex="1" parent="1">
          <mxGeometry x="110" y="450" width="160" height="40" as="geometry" />
        </mxCell>
        <mxCell id="v-Xa-_rRVc9M8orTa3xz-32" value="Max pooling" style="text;html=1;align=center;verticalAlign=middle;whiteSpace=wrap;rounded=0;fontSize=15;" vertex="1" parent="1">
          <mxGeometry x="190" y="500" width="160" height="40" as="geometry" />
        </mxCell>
        <mxCell id="v-Xa-_rRVc9M8orTa3xz-33" value="ActivaciÃ³n ReLU" style="text;html=1;align=center;verticalAlign=middle;whiteSpace=wrap;rounded=0;fontSize=15;" vertex="1" parent="1">
          <mxGeometry x="350" y="450" width="160" height="40" as="geometry" />
        </mxCell>
        <mxCell id="v-Xa-_rRVc9M8orTa3xz-34" value="Dropout" style="text;html=1;align=center;verticalAlign=middle;whiteSpace=wrap;rounded=0;fontSize=15;" vertex="1" parent="1">
          <mxGeometry x="580" y="450" width="160" height="40" as="geometry" />
        </mxCell>
        <mxCell id="v-Xa-_rRVc9M8orTa3xz-35" value="Capa lineal" style="text;html=1;align=center;verticalAlign=middle;whiteSpace=wrap;rounded=0;fontSize=15;" vertex="1" parent="1">
          <mxGeometry x="430" y="500" width="160" height="40" as="geometry" />
        </mxCell>
        <mxCell id="v-Xa-_rRVc9M8orTa3xz-36" value="" style="sketch=0;outlineConnect=0;fontColor=#232F3E;gradientColor=none;fillColor=#ED7100;strokeColor=none;dashed=0;verticalLabelPosition=bottom;verticalAlign=top;align=center;html=1;fontSize=12;fontStyle=0;aspect=fixed;pointerEvents=1;shape=mxgraph.aws4.container_registry_image;" vertex="1" parent="1">
          <mxGeometry x="-90" y="270" width="90" height="90" as="geometry" />
        </mxCell>
        <mxCell id="v-Xa-_rRVc9M8orTa3xz-37" value="" style="endArrow=none;html=1;rounded=1;fontSize=14;strokeWidth=7;curved=0;strokeColor=#001DBC;fillColor=#0050ef;" edge="1" parent="1">
          <mxGeometry width="50" height="50" relative="1" as="geometry">
            <mxPoint x="827" y="360" as="sourcePoint" />
            <mxPoint x="827" y="300" as="targetPoint" />
          </mxGeometry>
        </mxCell>
        <mxCell id="v-Xa-_rRVc9M8orTa3xz-39" value="" style="endArrow=none;html=1;rounded=1;fontSize=14;strokeWidth=7;curved=0;strokeColor=#B20000;fillColor=#e51400;" edge="1" parent="1">
          <mxGeometry width="50" height="50" relative="1" as="geometry">
            <mxPoint x="827" y="300" as="sourcePoint" />
            <mxPoint x="800" y="270" as="targetPoint" />
          </mxGeometry>
        </mxCell>
        <mxCell id="v-Xa-_rRVc9M8orTa3xz-38" value="" style="endArrow=none;html=1;rounded=1;fontSize=14;strokeWidth=7;curved=0;strokeColor=#2D7600;fillColor=#60a917;startArrow=oval;startFill=1;endFillColor=#000000;startFillColor=#000000;endFill=1;" edge="1" parent="1">
          <mxGeometry width="50" height="50" relative="1" as="geometry">
            <mxPoint x="827" y="300" as="sourcePoint" />
            <mxPoint x="880" y="300" as="targetPoint" />
          </mxGeometry>
        </mxCell>
      </root>
    </mxGraphModel>
  </diagram>
</mxfile>
